<svg width="38" height="60" viewBox="0 0 38 60" fill="none" xmlns="http://www.w3.org/2000/svg">
<path d="M20.0025 2.0997V2.02668C23.4362 2.2875 26.2107 3.87602 28.2267 5.95134C30.4342 8.22374 31.7337 11.0812 31.9937 13.4218C32.3433 16.568 31.8272 18.6561 31.2708 20.0275C30.8354 21.1004 30.8861 22.2919 31.5309 23.2436C33.3956 25.9957 35.711 30.2255 36.1395 36.2241C36.3797 39.587 36.133 42.3209 35.3062 44.7985C34.5578 47.0412 33.3351 49.0712 31.5729 51.1656L31.4972 51.2555L31.4445 51.3606C31.1588 51.9295 31.2875 52.4989 31.4179 52.8747C31.5451 53.2415 31.7577 53.6507 31.9594 54.0388L31.9833 54.0847C32.0794 54.2698 32.1789 54.4614 32.2815 54.6667C32.6876 55.4788 32.9604 56.0266 33.1265 56.452C33.2803 56.8457 33.2916 57.014 33.2851 57.0868L33.0875 56.5541C33.0786 56.53 33.069 56.5049 33.0587 56.4785L32.1428 56.8362L33.0587 56.4784C32.894 56.0567 32.6225 55.5115 32.2164 54.6992L31.3873 53.041L31.3856 53.0376C31.3566 52.9801 31.3268 52.9228 31.2996 52.8705L31.2982 52.8678L30.4108 53.3289L31.2982 52.8678C31.2209 52.719 31.1315 52.4948 31.0764 52.2652C31.0168 52.017 31.0233 51.8709 31.0335 51.8274C31.0544 51.7382 31.0895 51.6497 31.1269 51.5763C31.145 51.5406 31.1612 51.5136 31.1721 51.4969C31.1734 51.4947 31.1747 51.4929 31.1757 51.4913C33.2461 49.1593 34.4194 47.226 35.2371 44.7755C36.06 42.3096 36.3066 39.5859 36.0669 36.2293C35.6396 30.248 33.3312 26.0304 31.4707 23.2844C30.8096 22.3087 30.7607 21.0908 31.2033 20.0001C31.7553 18.6396 32.2696 16.5636 31.9214 13.4299C31.6633 11.1068 30.3718 8.26403 28.1745 6.00207C26.1701 3.93868 23.4135 2.36029 20.0025 2.0997ZM30.2096 58.0191H20.002V57.9463H30.2096C31.1177 57.9463 31.7267 57.9453 32.1776 57.904C32.2058 57.9014 32.2326 57.8987 32.2583 57.896L32.8231 57.8344C32.761 57.8727 32.6055 57.938 32.1843 57.9765C31.7296 58.0181 31.1175 58.0191 30.2096 58.0191ZM4.94124 56.4784L5.85716 56.8362L4.94124 56.4785C4.93092 56.5049 4.92134 56.53 4.91243 56.5541L4.71482 57.0868C4.70838 57.014 4.71964 56.8457 4.87342 56.452C5.03956 56.0266 5.31238 55.4788 5.71841 54.6667C5.82105 54.4614 5.92054 54.2698 6.01667 54.0847L6.04055 54.0388C6.24225 53.6507 6.45487 53.2415 6.58207 52.8747C6.71241 52.4989 6.84113 51.9295 6.55546 51.3606L6.5027 51.2555L6.42701 51.1656C4.66487 49.0712 3.44214 47.0412 2.69374 44.7985C1.86694 42.3209 1.62023 39.587 1.86044 36.2241C2.28891 30.2255 4.6043 25.9957 6.46899 23.2436C7.11381 22.2919 7.1645 21.1004 6.72918 20.0275C6.17274 18.6561 5.65661 16.568 6.00618 13.4218C6.26626 11.0812 7.56574 8.22374 9.77321 5.95134C11.7892 3.87602 14.5638 2.2875 17.9974 2.02668V2.0997C14.5864 2.36029 11.8299 3.93868 9.82544 6.00207C7.6281 8.26403 6.33666 11.1068 6.07855 13.4299C5.73035 16.5636 6.24459 18.6396 6.79665 20.0001C7.23919 21.0908 7.19034 22.3087 6.52927 23.2844C4.66873 26.0304 2.3603 30.248 1.93306 36.2293C1.69331 39.5859 1.93991 42.3096 2.7628 44.7755C3.58117 47.2279 4.67729 49.0632 6.75967 51.4058C6.7697 51.4171 6.81144 51.4687 6.8578 51.5551C6.90282 51.6391 6.94495 51.7423 6.97009 51.8585C6.98812 51.9419 6.98713 52.0836 6.93323 52.2887C6.88096 52.4878 6.79346 52.6913 6.70176 52.8678L7.58911 53.3289L6.70176 52.8678L6.7003 52.8706C6.67309 52.9229 6.64335 52.9802 6.61436 53.0376L6.61266 53.041L5.78353 54.6992C5.37742 55.5115 5.10598 56.0567 4.94124 56.4784ZM5.81566 57.9765C5.39446 57.938 5.23896 57.8727 5.17681 57.8344L5.74167 57.896C5.76729 57.8987 5.79416 57.9014 5.82232 57.904C6.2732 57.9453 6.88225 57.9463 7.79035 57.9463H17.9979V58.0191H7.79035C6.88241 58.0191 6.27038 58.0181 5.81566 57.9765ZM25.4021 14.972C25.4021 18.5066 22.5367 21.372 19.002 21.372C15.4674 21.372 12.602 18.5066 12.602 14.972C12.602 11.4373 15.4674 8.5719 19.002 8.5719C22.5367 8.5719 25.4021 11.4373 25.4021 14.972Z" stroke="#AD2D11" stroke-width="2"/>
<path d="M2.41959 34.8835H9.84785C10.3096 34.8835 10.5404 34.8835 10.7524 34.8608C12.0103 34.7264 13.1304 34.0049 13.7729 32.9151C13.8812 32.7315 13.9766 32.5213 14.1676 32.1009L14.8056 30.6959C15.5713 29.0098 17.2522 27.927 19.1041 27.927C20.998 27.927 22.7086 29.0588 23.4491 30.8019L24.0771 32.2799C24.2675 32.728 24.3627 32.9521 24.4727 33.1471C25.1038 34.2658 26.2337 35.0135 27.5102 35.1568C27.7327 35.1818 27.9761 35.1818 28.463 35.1818H35.5845" stroke="#AD2D11" stroke-width="2"/>
</svg>